<?xml version="1.0" standalone="no"?><!-- Generator: Gravit.io --><svg xmlns="http://www.w3.org/2000/svg" xmlns:xlink="http://www.w3.org/1999/xlink" style="isolation:isolate" viewBox="0 0 122.057 111.537" width="122.057" height="111.537"><defs><clipPath id="_clipPath_xAebjUN3NmdIlajePjiXHPi3liL21pUA"><rect width="122.057" height="111.537"/></clipPath></defs><g clip-path="url(#_clipPath_xAebjUN3NmdIlajePjiXHPi3liL21pUA)"><path d="M 18.455 20.385 L 103.602 20.385 C 111.304 20.385 117.557 26.638 117.557 34.34 L 117.557 77.892 C 117.557 85.594 111.304 91.847 103.602 91.847 L 18.455 91.847 C 10.753 91.847 4.5 85.594 4.5 77.892 L 4.5 34.34 C 4.5 26.638 10.753 20.385 18.455 20.385 Z" style="stroke:none;fill:#000000;stroke-miterlimit:10;"/><path d="M 18.455 20.385 L 103.602 20.385 C 111.304 20.385 117.557 26.638 117.557 34.34 L 117.557 77.892 C 117.557 85.594 111.304 91.847 103.602 91.847 L 18.455 91.847 C 10.753 91.847 4.5 85.594 4.5 77.892 L 4.5 34.34 C 4.5 26.638 10.753 20.385 18.455 20.385 Z" style="fill:none;stroke:#000000;stroke-width:3;stroke-linecap:square;stroke-miterlimit:3;"/><g style="mix-blend-mode:multiply;"><line x1="88.872" y1="0.999" x2="88.872" y2="110.538" vector-effect="non-scaling-stroke" stroke-width="2" stroke="rgb(0,0,0)" stroke-linejoin="miter" stroke-linecap="square" stroke-miterlimit="3" style="mix-blend-mode:multiply;"/></g><path d=" M 18.424 74.394 L 18.424 74.394 L 18.424 74.394 Q 18.424 74.394 18.928 51.57 L 18.928 51.57 L 18.928 51.57 Q 18.928 42.498 17.848 39.906 L 17.848 39.906 L 14.32 34.434 L 14.536 33.354 L 14.536 33.354 Q 19.648 32.202 29.224 32.202 L 29.224 32.202 L 29.224 32.202 Q 30.592 34.29 30.592 39.942 L 30.592 39.942 L 30.592 39.942 Q 30.592 45.594 29.872 55.134 L 29.872 55.134 L 29.872 55.134 Q 29.152 64.674 29.152 69.858 L 29.152 69.858 L 29.152 69.858 Q 29.152 75.042 31.6 75.042 L 31.6 75.042 L 31.6 75.042 Q 33.04 75.042 35.776 72.702 L 35.776 72.702 L 35.776 72.702 Q 38.512 70.362 40.456 67.626 L 40.456 67.626 L 40.456 67.626 Q 42.04 51.354 42.04 45.666 L 42.04 45.666 L 42.04 45.666 Q 42.04 39.978 40.456 35.082 L 40.456 35.082 L 40.456 35.082 Q 44.272 33.138 52.984 32.13 L 52.984 32.13 L 52.984 32.13 Q 53.776 34.722 53.776 39.438 L 53.776 39.438 L 53.776 39.438 Q 53.776 44.154 52.3 55.818 L 52.3 55.818 L 52.3 55.818 Q 50.824 67.482 50.824 71.262 L 50.824 71.262 L 50.824 71.262 Q 50.824 75.042 53.02 75.042 L 53.02 75.042 L 53.02 75.042 Q 55.216 75.042 58.96 70.866 L 58.96 70.866 L 58.96 70.866 Q 62.704 66.69 65.836 60.462 L 65.836 60.462 L 65.836 60.462 Q 68.968 54.234 69.328 49.194 L 69.328 49.194 L 61.696 44.73 L 61.696 44.73 Q 62.2 40.41 63.748 37.278 L 63.748 37.278 L 63.748 37.278 Q 65.296 34.146 66.592 33.138 L 66.592 33.138 L 67.888 32.13 L 67.888 32.13 Q 72.28 32.13 74.62 34.398 L 74.62 34.398 L 74.62 34.398 Q 76.96 36.666 76.96 39.762 L 76.96 39.762 L 76.96 39.762 Q 76.96 45.594 74.044 53.37 L 74.044 53.37 L 74.044 53.37 Q 71.128 61.146 66.844 67.914 L 66.844 67.914 L 66.844 67.914 Q 62.56 74.682 57.088 79.398 L 57.088 79.398 L 57.088 79.398 Q 51.616 84.114 47.008 84.114 L 47.008 84.114 L 47.008 84.114 Q 44.272 84.114 42.148 81.522 L 42.148 81.522 L 42.148 81.522 Q 40.024 78.93 39.952 74.898 L 39.952 74.898 L 39.952 74.898 Q 36.784 79.218 33.256 81.666 L 33.256 81.666 L 33.256 81.666 Q 29.728 84.114 26.488 84.114 L 26.488 84.114 L 26.488 84.114 Q 23.248 84.114 20.836 81.414 L 20.836 81.414 L 20.836 81.414 Q 18.424 78.714 18.424 74.394 Z " fill="rgb(255,255,255)"/><line x1="88.872" y1="23" x2="88.872" y2="90" vector-effect="non-scaling-stroke" stroke-width="1" stroke="rgb(255,255,255)" stroke-linejoin="miter" stroke-linecap="square" stroke-miterlimit="3"/></g></svg>